<svg width="277" height="94" viewBox="0 0 277 94" fill="none" xmlns="http://www.w3.org/2000/svg">
<path d="M22.2461 37H16.5039V13.3477H8.06641V37H2.32422V8.5625H22.2461V37ZM44.382 24.6953H35.4367V32.2344H46.0227V37H29.6945V8.5625H45.9836V13.3477H35.4367V20.0664H44.382V24.6953ZM71.9867 8.5625V37H66.2445V26.2773C64.7211 26.6159 63.2888 26.7852 61.9477 26.7852C58.8487 26.7852 56.4854 26.0039 54.8578 24.4414C53.2302 22.8789 52.3839 20.6263 52.3187 17.6836V8.5625H58.0805V17.3711C58.0805 19.0378 58.3604 20.2292 58.9203 20.9453C59.4932 21.6615 60.5023 22.0195 61.9477 22.0195C63.3409 22.0195 64.7732 21.8503 66.2445 21.5117V8.5625H71.9867ZM93.3219 31.1797H85.4898L83.9664 37H77.8922L86.7789 8.5625H92.0328L100.978 37H94.8453L93.3219 31.1797ZM86.7398 26.3945H92.0523L89.3961 16.2578L86.7398 26.3945ZM122.528 13.3477H115.497V37H109.735V13.3477H102.821V8.5625H122.528V13.3477ZM148.57 37H142.848V24.832H134.371V37H128.629V8.5625H134.371V20.0664H142.848V8.5625H148.57V37ZM161.82 18.7773H165.218C168.096 18.7773 170.387 19.5977 172.093 21.2383C173.799 22.8659 174.652 25.0469 174.652 27.7812C174.652 30.5026 173.818 32.7096 172.152 34.4023C170.485 36.082 168.278 36.9479 165.53 37H156.058V8.5625H161.82V18.7773ZM181.878 37H176.136V8.5625H181.878V37ZM161.82 23.543V32.2344H165.296C166.416 32.2344 167.295 31.8177 167.933 30.9844C168.584 30.138 168.909 29.0573 168.909 27.7422C168.909 26.5052 168.59 25.5026 167.952 24.7344C167.327 23.9531 166.455 23.556 165.335 23.543H161.82ZM203.995 24.6953H195.049V32.2344H205.635V37H189.307V8.5625H205.596V13.3477H195.049V20.0664H203.995V24.6953ZM22.2461 84H16.5039V60.3477H8.06641V84H2.32422V55.5625H22.2461V84ZM49.6359 55.5625V84H43.8742V60.3477H38.6008L38.2102 70.4258C38.0539 73.7461 37.6763 76.3828 37.0773 78.3359C36.4914 80.276 35.6255 81.7018 34.4797 82.6133C33.3469 83.5247 31.8169 83.987 29.8898 84H28.4836V79.2344L29.1477 79.1758C30.3456 79.0326 31.2049 78.2513 31.7258 76.832C32.2596 75.3997 32.5917 72.8737 32.7219 69.2539L33.093 55.5625H49.6359ZM70.9906 78.1797H63.1586L61.6352 84H55.5609L64.4477 55.5625H69.7016L78.6469 84H72.5141L70.9906 78.1797ZM64.4086 73.3945H69.7211L67.0648 63.2578L64.4086 73.3945ZM100.197 60.3477H93.1656V84H87.4039V60.3477H80.4898V55.5625H100.197V60.3477ZM112.118 65.7773H115.516C118.394 65.7773 120.686 66.5977 122.391 68.2383C124.097 69.8659 124.95 72.0469 124.95 74.7812C124.95 77.5026 124.117 79.7096 122.45 81.4023C120.783 83.082 118.576 83.9479 115.829 84H106.356V55.5625H112.118V65.7773ZM132.177 84H126.434V55.5625H132.177V84ZM112.118 70.543V79.2344H115.595C116.714 79.2344 117.593 78.8177 118.231 77.9844C118.882 77.138 119.208 76.0573 119.208 74.7422C119.208 73.5052 118.889 72.5026 118.251 71.7344C117.626 70.9531 116.753 70.556 115.634 70.543H112.118Z" fill="white"/>
</svg>
